<svg aria-hidden="true" style="position:absolute;width:0;height:0" xmlns="http://www.w3.org/2000/svg" overflow="hidden"><defs><symbol id="icon-equalizer" viewBox="0 0 32 32"><path fill="var(--color1, #186dbe)" d="M29 .5H3A2.5 2.5 0 00.5 3v20A2.5 2.5 0 003 25.5h15.5v.5c0 1.469.575 2.85 1.613 3.887S22.532 31.5 24 31.5c3.031 0 5.5-2.469 5.5-5.5v-.55a2.507 2.507 0 002-2.45V3A2.5 2.5 0 0029 .5zM28.5 26c0 2.481-2.019 4.5-4.5 4.5-1.2 0-2.331-.469-3.181-1.319S19.5 27.2 19.5 26v-1.294c0-.538-.125-1.081-.369-1.563l-.6-1.194a.312.312 0 01.275-.45c.931 0 1.694.756 1.694 1.694v1.306h1v-8.5c0-.275.225-.5.5-.5s.5.225.5.5v8.5h1v-4c0-.275.225-.5.5-.5s.5.225.5.5v4h1v-3.5c0-.275.225-.5.5-.5s.5.225.5.5v3.5h1v-3c0-.275.225-.5.5-.5s.5.225.5.5v4.5zm2-3c0 .65-.419 1.2-1 1.406V21.5c0-.825-.675-1.5-1.5-1.5-.269 0-.519.075-.738.2A1.49 1.49 0 0026 19.5c-.269 0-.519.075-.738.2A1.49 1.49 0 0024 19c-.175 0-.344.038-.5.094V16c0-.825-.675-1.5-1.5-1.5s-1.5.675-1.5 1.5v5.113a2.686 2.686 0 00-1.694-.613c-.725 0-1.306.587-1.306 1.313 0 .2.05.406.137.587l.6 1.194c.144.281.225.594.25.913H2.999c-.825 0-1.5-.675-1.5-1.5V3.001c0-.825.675-1.5 1.5-1.5h26c.825 0 1.5.675 1.5 1.5v20z"/><path fill="var(--color1, #186dbe)" d="M18.5 2.5h-15c-.55 0-1 .45-1 1v10c0 .55.45 1 1 1h15c.55 0 1-.45 1-1v-10c0-.55-.45-1-1-1zm0 1v7H18a.501.501 0 01-.5-.5V6c0-.825-.675-1.5-1.5-1.5s-1.5.675-1.5 1.5v4c0 .275-.225.5-.5.5s-.5-.225-.5-.5V7.5c0-.825-.675-1.5-1.5-1.5s-1.5.675-1.5 1.5V9c0 .275-.225.5-.5.5s-.5-.225-.5-.5V6c0-.825-.675-1.5-1.5-1.5S6.5 5.175 6.5 6v5c0 .275-.225.5-.5.5s-.5-.225-.5-.5v-.5C5.5 9.675 4.825 9 4 9h-.5V3.5h15zm-15 10V10H4c.275 0 .5.225.5.5v.5c0 .825.675 1.5 1.5 1.5s1.5-.675 1.5-1.5V6c0-.275.225-.5.5-.5s.5.225.5.5v3c0 .825.675 1.5 1.5 1.5s1.5-.675 1.5-1.5V7.5c0-.275.225-.5.5-.5s.5.225.5.5V10c0 .825.675 1.5 1.5 1.5s1.5-.675 1.5-1.5V6c0-.275.225-.5.5-.5s.5.225.5.5v4c0 .825.675 1.5 1.5 1.5h.5v2h-15zm1 6c-1.1 0-2 .9-2 2s.9 2 2 2 2-.9 2-2-.9-2-2-2zm0 3c-.55 0-1-.45-1-1s.45-1 1-1 1 .45 1 1-.45 1-1 1zm5-3c-1.1 0-2 .9-2 2s.9 2 2 2 2-.9 2-2-.9-2-2-2zm0 3c-.55 0-1-.45-1-1s.45-1 1-1 1 .45 1 1-.45 1-1 1zm5-3c-1.1 0-2 .9-2 2s.9 2 2 2 2-.9 2-2-.9-2-2-2zm0 3c-.55 0-1-.45-1-1s.45-1 1-1 1 .45 1 1-.45 1-1 1zm-9-5.5c0-.825-.675-1.5-1.5-1.5s-1.5.675-1.5 1.5.675 1.5 1.5 1.5 1.5-.675 1.5-1.5zm-2 0c0-.275.225-.5.5-.5s.5.225.5.5-.225.5-.5.5-.5-.225-.5-.5zm6 0c0-.825-.675-1.5-1.5-1.5s-1.5.675-1.5 1.5.675 1.5 1.5 1.5 1.5-.675 1.5-1.5zm-2 0c0-.275.225-.5.5-.5s.5.225.5.5-.225.5-.5.5-.5-.225-.5-.5zm6 0c0-.825-.675-1.5-1.5-1.5s-1.5.675-1.5 1.5.675 1.5 1.5 1.5 1.5-.675 1.5-1.5zm-1.5.5c-.275 0-.5-.225-.5-.5s.225-.5.5-.5.5.225.5.5-.225.5-.5.5zm4-2c-.825 0-1.5.675-1.5 1.5s.675 1.5 1.5 1.5 1.5-.675 1.5-1.5-.675-1.5-1.5-1.5zm0 2c-.275 0-.5-.225-.5-.5s.225-.5.5-.5.5.225.5.5-.225.5-.5.5zm6.5-7.906V2.5h-1v7.094c-.581.206-1 .756-1 1.406s.419 1.2 1 1.406V13.5h1v-1.094c.581-.206 1-.756 1-1.406s-.419-1.2-1-1.406zM22 11.5c-.275 0-.5-.225-.5-.5s.225-.5.5-.5.5.225.5.5-.225.5-.5.5zm3.5-6.906V2.5h-1v2.094c-.581.206-1 .756-1 1.406s.419 1.2 1 1.406V13.5h1V7.406c.581-.206 1-.756 1-1.406s-.419-1.2-1-1.406zM25 6.5c-.275 0-.5-.225-.5-.5s.225-.5.5-.5.5.225.5.5-.225.5-.5.5zm3.5 2.094V2.5h-1v6.094c-.581.206-1 .756-1 1.406s.419 1.2 1 1.406V13.5h1v-2.094c.581-.206 1-.756 1-1.406s-.419-1.2-1-1.406zM28 10.5c-.275 0-.5-.225-.5-.5s.225-.5.5-.5.5.225.5.5-.225.5-.5.5z"/></symbol><symbol id="icon-site" viewBox="0 0 32 32"><path fill="var(--color1, #186dbe)" d="M28.367 30.091H3.633A3.639 3.639 0 010 26.458V5.488a3.639 3.639 0 013.633-3.633h24.734A3.639 3.639 0 0132 5.488v20.97a3.639 3.639 0 01-3.633 3.633zM3.633 2.937a2.553 2.553 0 00-2.551 2.551v20.97a2.553 2.553 0 002.551 2.551h24.734a2.553 2.553 0 002.551-2.551V5.488a2.553 2.553 0 00-2.551-2.551H3.633z"/><path fill="var(--color1, #186dbe)" d="M27.115 21.828h-8.502c-.301 0-.541-.24-.541-.541s.24-.541.541-.541h8.502c.301 0 .541.24.541.541s-.24.541-.541.541zm0 3.911h-8.502c-.301 0-.541-.24-.541-.541s.24-.541.541-.541h8.502c.301 0 .541.24.541.541s-.24.541-.541.541zm0-11.733h-8.502c-.301 0-.541-.24-.541-.541s.24-.541.541-.541h8.502c.301 0 .541.24.541.541s-.24.541-.541.541zm0 3.911h-8.502c-.301 0-.541-.24-.541-.541s.24-.541.541-.541h8.502c.301 0 .541.24.541.541s-.24.541-.541.541zm4.344-8.819H.541C.24 9.098 0 8.858 0 8.557s.24-.541.541-.541h30.918c.301 0 .541.24.541.541s-.24.541-.541.541zM7.799 7.173c-.928 0-1.685-.758-1.685-1.685s.758-1.685 1.685-1.685 1.685.758 1.685 1.685-.758 1.685-1.685 1.685zm0-2.288c-.332 0-.603.271-.603.603s.271.603.603.603c.332 0 .603-.271.603-.603s-.271-.603-.603-.603zM3.903 7.173c-.928 0-1.685-.758-1.685-1.685s.757-1.685 1.685-1.685 1.685.758 1.685 1.685-.758 1.685-1.685 1.685zm0-2.288c-.332 0-.603.271-.603.603s.271.603.603.603c.332 0 .603-.271.603-.603s-.271-.603-.603-.603zm7.792 2.288c-.928 0-1.685-.758-1.685-1.685s.758-1.685 1.685-1.685 1.685.758 1.685 1.685-.75 1.685-1.685 1.685zm0-2.288c-.332 0-.603.271-.603.603s.271.603.603.603c.332 0 .603-.271.603-.603s-.271-.603-.603-.603zm2.836 20.854H4.715a.538.538 0 01-.541-.541V13.465c0-.301.24-.541.541-.541h9.816c.301 0 .541.24.541.541v11.733c0 .301-.24.541-.541.541zm-9.275-1.082h8.734V14.006H5.256v10.651z"/></symbol><symbol id="icon-analytics" viewBox="0 0 32 32"><path fill="var(--color1, #186dbe)" d="M13 25.5h1.5v1H13v-1z"/><path fill="var(--color1, #186dbe)" d="M29.5 0h-27A2.5 2.5 0 000 2.5V24a2.5 2.5 0 002.5 2.5H5v-1H2.5c-.825 0-1.5-.675-1.5-1.5V5h30v19c0 .825-.675 1.5-1.5 1.5v1A2.5 2.5 0 0032 24V2.5A2.5 2.5 0 0029.5 0zM31 4H1V2.5C1 1.675 1.675 1 2.5 1h27c.825 0 1.5.675 1.5 1.5V4z"/><path fill="var(--color1, #186dbe)" d="M3 2.5a.5.5 0 11-1 0 .5.5 0 011 0zm2 0a.5.5 0 11-1 0 .5.5 0 011 0zm2 0a.5.5 0 11-1 0 .5.5 0 011 0zM26 20h-3v-2c0-.275-.225-.5-.5-.5h-6.469c.3-.775.469-1.619.469-2.5 0-.275-.225-.5-.5-.5h-6v-6c0-.275-.225-.5-.5-.5-3.862 0-7 3.137-7 7s3.138 7 7 7c2.581 0 4.838-1.413 6.05-3.5H22V20h-4a2.5 2.5 0 00-2.5 2.5v5A2.5 2.5 0 0018 30h8a2.5 2.5 0 002.5-2.5v-5A2.5 2.5 0 0026 20zM3.5 15A6.013 6.013 0 019 9.019V14.9l-2.256 5.425C4.819 19.319 3.5 17.313 3.5 15zm11.45 2.5h-2.037c-.206-.581-.756-1-1.406-1-.825 0-1.5.675-1.5 1.5s.675 1.5 1.5 1.5c.65 0 1.2-.419 1.406-1h1.456a5.984 5.984 0 01-6.7 2.212l2.169-5.213h5.644a6.121 6.121 0 01-.531 2zM12 18c0 .275-.225.5-.5.5s-.5-.225-.5-.5.225-.5.5-.5.5.225.5.5zm15.5 9.5c0 .825-.675 1.5-1.5 1.5h-8c-.825 0-1.5-.675-1.5-1.5v-5c0-.825.675-1.5 1.5-1.5h8c.825 0 1.5.675 1.5 1.5v5z"/><path fill="var(--color1, #186dbe)" d="M18.5 6a.506.506 0 00-.356.144L16.338 7.95A6.996 6.996 0 0011.5 6c-.275 0-.5.225-.5.5V13c0 .275.225.5.5.5H18c.275 0 .5-.225.5-.5a6.972 6.972 0 00-1.488-4.3l1.7-1.7H21V6h-2.5zm-1.019 6.5H12V7.019a5.97 5.97 0 013.631 1.638l-.988.988.706.706.944-.944a5.99 5.99 0 011.188 3.094zM22 6h8v1h-8V6zm0 2h8v1h-8V8zm0 2h8v1h-8v-1zM12 31v-5c0-.275-.225-.5-.5-.5h-2V24c0-.275-.225-.5-.5-.5H6.5c-.275 0-.5.225-.5.5v4H4c-.275 0-.5.225-.5.5V31H1v1h13v-1h-2zm-6 0H4.5v-2H6v2zm2.5-5v5H7v-6.5h1.5V26zm2.5 5H9.5v-4.5H11V31zm14.525-8.156l-1.156 3.469-2.438-4.069a.49.49 0 00-.462-.244.503.503 0 00-.425.3l-1.212 2.825-.975-.975a.5.5 0 00-.819.169l-1 2.5.925.369.719-1.794.962.962a.5.5 0 00.813-.157l1.113-2.6 2.5 4.163a.5.5 0 00.425.244h.056a.502.502 0 00.419-.337l1.5-4.5-.944-.325zM29.5 13h-5c-.275 0-.5.225-.5.5v4c0 .275.225.5.5.5h5c.275 0 .5-.225.5-.5v-4c0-.275-.225-.5-.5-.5zm-1.425 1L27 14.863 25.925 14h2.15zM25 14.537l1.2.963-1.2.962v-1.925zM25.925 17L27 16.137l1.075.863h-2.15zM29 16.462l-1.2-.963 1.2-.963v1.925z"/></symbol><symbol id="icon-crm" viewBox="0 0 32 32"><path fill="var(--color1, #186dbe)" d="M28.813 25.387A3.002 3.002 0 0030.001 23a3.007 3.007 0 00-2.5-2.956V19.5a2.5 2.5 0 00-2.5-2.5h-8.5v-1.825c.269.206.594.325.938.325.844 0 1.525-.669 1.556-1.506a1.555 1.555 0 001.5-1.5 1.555 1.555 0 001.5-1.5 1.559 1.559 0 001.05-2.662l-.106-.106a4.705 4.705 0 001.063-2.987A4.744 4.744 0 0019.258.502a4.697 4.697 0 00-3.256 1.3 4.704 4.704 0 00-3.256-1.3 4.745 4.745 0 00-4.744 4.744c0 1.231.469 2.381 1.313 3.269-.2.269-.313.588-.313.925 0 .844.669 1.525 1.506 1.556a1.555 1.555 0 001.5 1.5 1.555 1.555 0 001.5 1.5 1.558 1.558 0 001.556 1.506c.15 0 .3-.031.438-.069v1.569h-8.5a2.5 2.5 0 00-2.5 2.5v.544a2.998 2.998 0 00-2.5 2.956 3 3 0 001.188 2.387 4.493 4.493 0 00-2.688 4.113v2h9v-2a4.493 4.493 0 00-2.688-4.113 3.002 3.002 0 001.188-2.387 3.007 3.007 0 00-2.5-2.956v-.544c0-.825.675-1.5 1.5-1.5h8.5v2.044a2.998 2.998 0 00-2.5 2.956 3 3 0 001.188 2.387 4.506 4.506 0 00-2.688 4.113v2h9v-2a4.493 4.493 0 00-2.688-4.113 3.002 3.002 0 001.188-2.387 3.007 3.007 0 00-2.5-2.956v-2.044h8.5c.825 0 1.5.675 1.5 1.5v.544a2.998 2.998 0 00-2.5 2.956 3 3 0 001.188 2.387 4.506 4.506 0 00-2.688 4.113v2h9v-2a4.493 4.493 0 00-2.688-4.113zM19.256 1.5A3.75 3.75 0 0123 5.244c0 .838-.275 1.625-.775 2.275l-2.3-2.3c.15-.112.294-.231.425-.362l-.706-.706c-.55.55-1.281.856-2.063.856h-.794l-.85.85a.495.495 0 01-.356.144H13.7a.208.208 0 01-.206-.206c0-.056.025-.106.063-.144l3.05-3.05a3.717 3.717 0 012.65-1.1zm-6.512 0c.956 0 1.85.356 2.544 1.006L12.85 4.943a1.211 1.211 0 00.856 2.062h1.881c.4 0 .775-.156 1.063-.438l.563-.563h.381c.5 0 .981-.094 1.438-.275l3.319 3.319a.55.55 0 01.163.394c0 .306-.25.563-.563.563a.549.549 0 01-.394-.162l-1.188-1.188-.706.706 1.188 1.188a.55.55 0 01.163.394c0 .306-.25.563-.563.563a.549.549 0 01-.394-.162l-1.188-1.188-.706.706 1.188 1.188a.55.55 0 01.163.394c0 .306-.25.563-.563.563a.549.549 0 01-.394-.162l-1.188-1.188-.706.706 1.188 1.188a.55.55 0 01.163.394c0 .306-.25.563-.563.563a.549.549 0 01-.394-.162l-.169-.169c.081-.188.125-.394.125-.606 0-.844-.669-1.525-1.506-1.556a1.555 1.555 0 00-1.5-1.5 1.555 1.555 0 00-1.5-1.5 1.558 1.558 0 00-1.556-1.506c-.338 0-.656.112-.919.306a3.72 3.72 0 01-1.019-2.563 3.733 3.733 0 013.731-3.75zM10 9.438a.55.55 0 01.162-.394l.381-.381a.549.549 0 01.394-.162c.306 0 .563.25.563.563a.55.55 0 01-.162.394l-.381.381A.56.56 0 0110 9.438zm1.5 1.5a.55.55 0 01.162-.394l.381-.381a.549.549 0 01.394-.162c.306 0 .563.25.563.563a.55.55 0 01-.162.394l-.381.381a.56.56 0 01-.957-.401zm1.5 1.5a.55.55 0 01.162-.394l.381-.381a.549.549 0 01.394-.162c.306 0 .563.25.563.563a.55.55 0 01-.162.394l-.381.381a.56.56 0 01-.957-.401zm2.063 2.062a.565.565 0 01-.563-.563.55.55 0 01.162-.394l.381-.381a.549.549 0 01.394-.162c.306 0 .563.25.563.563a.55.55 0 01-.162.394l-.381.381a.549.549 0 01-.394.162zM8.5 29.5v1h-1v-2h-1v2h-3v-2h-1v2h-1v-1C1.5 27.569 3.069 26 5 26s3.5 1.569 3.5 3.5zM7 23c0 1.1-.9 2-2 2s-2-.9-2-2 .9-2 2-2 2 .9 2 2zm12.5 6.5v1h-1v-2h-1v2h-3v-2h-1v2h-1v-1c0-1.931 1.569-3.5 3.5-3.5s3.5 1.569 3.5 3.5zM18 23c0 1.1-.9 2-2 2s-2-.9-2-2 .9-2 2-2 2 .9 2 2zm7 0c0-1.1.9-2 2-2s2 .9 2 2-.9 2-2 2-2-.9-2-2zm5.5 7.5h-1v-2h-1v2h-3v-2h-1v2h-1v-1c0-1.931 1.569-3.5 3.5-3.5s3.5 1.569 3.5 3.5v1z"/><path fill="var(--color1, #186dbe)" d="M19 19h1v1h-1v-1zm2 0h1v1h-1v-1zm2 0h1v1h-1v-1zM8 19h1v1H8v-1zm2 0h1v1h-1v-1zm2 0h1v1h-1v-1z"/></symbol><symbol id="icon-messangers" viewBox="0 0 32 32"><path fill="var(--color1, #186dbe)" d="M30.594 0H1.406C.631 0 0 .631 0 1.406v29.181A1.41 1.41 0 001.406 32h29.181c.775 0 1.406-.631 1.406-1.406V12.75c0-.256-.212-.469-.469-.469s-.469.213-.469.469v17.844a.472.472 0 01-.469.469H1.405a.472.472 0 01-.469-.469V6.382h30.125v4.238c0 .256.212.469.469.469s.469-.213.469-.469V1.407c0-.775-.631-1.406-1.406-1.406zm.469 5.438H.938V1.407c0-.256.212-.469.469-.469h29.181c.256 0 .469.212.469.469l.006 4.031z"/><path fill="var(--color1, #186dbe)" d="M4.169 1.769c-.825 0-1.5.675-1.5 1.5s.675 1.5 1.5 1.5 1.5-.675 1.5-1.5-.669-1.5-1.5-1.5zm0 2.062c-.306 0-.563-.25-.563-.563s.25-.563.563-.563c.306 0 .563.25.563.563s-.25.563-.563.563zm3.975-2.062c-.825 0-1.5.675-1.5 1.5s.675 1.5 1.5 1.5 1.5-.675 1.5-1.5-.675-1.5-1.5-1.5zm0 2.062c-.306 0-.563-.25-.563-.563s.25-.563.563-.563c.306 0 .563.25.563.563s-.25.563-.563.563zm3.975-2.062c-.825 0-1.5.675-1.5 1.5s.675 1.5 1.5 1.5 1.5-.675 1.5-1.5-.675-1.5-1.5-1.5zm0 2.062c-.306 0-.563-.25-.563-.563s.25-.563.563-.563a.564.564 0 010 1.126zm-9.382 25.05c0 .431.35.781.781.781h19.363c.431 0 .781-.35.781-.781v-5.137a.781.781 0 00-.781-.781H3.518a.781.781 0 00-.781.781v5.137zm.938-4.981h19.05v4.825H3.675V23.9z"/><path fill="var(--color1, #186dbe)" d="M5.094 25.794h1.537c.256 0 .469-.212.469-.469s-.213-.469-.469-.469H5.094a.469.469 0 000 .938zm12.631-.938H8.35c-.256 0-.469.212-.469.469s.213.469.469.469h9.375c.256 0 .469-.212.469-.469s-.212-.469-.469-.469zM16.3 26.825h-3.425c-.256 0-.469.212-.469.469s.213.469.469.469H16.3c.256 0 .469-.212.469-.469s-.206-.469-.469-.469zm-5.219 0h-1.069c-.256 0-.469.212-.469.469s.213.469.469.469h1.069c.256 0 .469-.212.469-.469s-.213-.469-.469-.469zm-2.787 0h-3.2c-.256 0-.469.212-.469.469s.213.469.469.469h3.2c.256 0 .469-.212.469-.469s-.213-.469-.469-.469zM29.875 9.363a1.847 1.847 0 00-1.844-1.844H13.787a1.847 1.847 0 00-1.844 1.844v1.938c0 1.019.831 1.844 1.844 1.844h11.5c.031.65.356 1.506 1.406 2 .1.044.2.069.306.069a.695.695 0 00.469-.175.714.714 0 00.225-.744c-.081-.287-.181-.775-.012-1.15h.356a1.847 1.847 0 001.844-1.844l-.006-1.938zm-.937 1.937c0 .5-.406.906-.906.906h-.613a.456.456 0 00-.363.175c-.344.425-.475.988-.381 1.65a1.272 1.272 0 01-.425-1.238.445.445 0 00-.087-.4.469.469 0 00-.369-.181H13.788a.906.906 0 01-.906-.906V9.368c0-.5.406-.906.906-.906h14.244c.5 0 .906.406.906.906v1.931zm-10.113 7.831h-2.637c-.256 0-.469.212-.469.469s.213.469.469.469h2.637a1.847 1.847 0 001.844-1.844v-1.938a1.847 1.847 0 00-1.844-1.844H4.581a1.847 1.847 0 00-1.844 1.844v1.938c0 1.019.831 1.844 1.844 1.844h.356c.169.369.069.863-.013 1.15a.7.7 0 00.225.744c.131.113.3.175.469.175a.75.75 0 00.306-.069c1.05-.494 1.375-1.344 1.406-2h6.856c.256 0 .469-.212.469-.469s-.213-.469-.469-.469H6.824c-.144 0-.281.063-.369.181s-.119.262-.088.4c.019.087.15.744-.425 1.244.094-.663-.037-1.225-.381-1.65a.483.483 0 00-.362-.175h-.612a.906.906 0 01-.906-.906v-1.938c0-.5.406-.906.906-.906h14.244c.5 0 .906.406.906.906v1.938a.916.916 0 01-.913.906zm8.206 5.075l-1.538 1.981a.473.473 0 00.081.656c.206.156.5.119.656-.081l.694-.894v2.881c0 .256.212.469.469.469s.469-.212.469-.469v-2.837l.625.837a.47.47 0 00.656.094.476.476 0 00.1-.656l-1.469-1.981c-.012-.012-.15-.206-.394-.194a.517.517 0 00-.35.194z"/></symbol><symbol id="icon-voip" viewBox="0 0 32 32"><path fill="var(--color1, #186dbe)" d="M6.062 17.82h5.389v.742H6.062v-.742z"/><path fill="var(--color1, #186dbe)" d="M25.197 5.132H7.308L4.47 16.623v4.46h22.952v-4.48L25.197 5.132zM10.759 8.643c.03-.158.089-.316.188-.475.109-.168.257-.336.435-.465l-.01-.01.524-.326c.386-.237.999-.247 1.365-.02l1.859 1.147c.366.227.356.603-.03.841l-.307.188-.623.386c.03.04.069.069.099.109.326.366.781.86 1.632 1.394.85.524 1.661.801 2.255.999.059.02.129.04.188.059l.939-.574c.386-.237.999-.247 1.365-.02l1.859 1.147c.366.227.356.603-.03.841l-.534.316-.01-.01a4.024 4.024 0 01-.761.267 5.27 5.27 0 01-.771.119c-.119.01-2.927.168-6.418-1.978-2.532-1.543-3.461-2.69-3.214-3.936zm16.089 11.866H5.053v-3.55h21.785v3.55z"/><path fill="var(--color1, #186dbe)" d="M23.99 19.599a1.038 1.038 0 100-2.075 1.038 1.038 0 000 2.075zm0-1.493c.247 0 .455.208.455.455s-.208.455-.455.455c-.247 0-.455-.208-.455-.455s.208-.455.455-.455zm-9.968.762a.485.485 0 11-.97 0 .485.485 0 01.97 0zm.979.484a.486.486 0 000-.97c-.267 0-.267.969 0 .969zm1.79-.484a.485.485 0 11-.97 0 .485.485 0 01.97 0zM32 25.246H18.274a1.334 1.334 0 00-1.295-1.038h-.732v-2.967h-.583v2.967h-.742c-.633 0-1.167.445-1.295 1.038H0v.583h13.627a1.334 1.334 0 001.295 1.038h2.057c.633 0 1.167-.445 1.295-1.038H32v-.583zm-15.021 1.038h-2.057a.752.752 0 110-1.504h2.057a.752.752 0 110 1.504z"/></symbol></defs></svg>