<svg xmlns="http://www.w3.org/2000/svg" width="14" height="17" viewBox="0 0 14 17">
  <g id="Polygon_31" data-name="Polygon 31" transform="translate(14) rotate(90)" fill="#3d485b">
    <path d="M 14.3344612121582 13.50000190734863 L 2.665540933609009 13.50000190734863 C 2.299401044845581 13.50000190734863 1.973610997200012 13.30950164794922 1.79404091835022 12.99041175842285 C 1.614480972290039 12.67133235931396 1.620730996131897 12.2939920425415 1.810740947723389 11.98102188110352 L 7.645210742950439 2.371322154998779 C 7.828081130981445 2.070111989974976 8.14763069152832 1.890292048454285 8.500000953674316 1.890292048454285 C 8.852371215820312 1.890292048454285 9.171911239624023 2.070122003555298 9.354790687561035 2.371322154998779 L 15.18925094604492 11.98102188110352 C 15.37927055358887 12.2939920425415 15.38551139831543 12.67133235931396 15.20595073699951 12.99041175842285 C 15.02639102935791 13.30950164794922 14.70060062408447 13.50000190734863 14.3344612121582 13.50000190734863 Z" stroke="none"/>
    <path d="M 8.500000953674316 2.390292167663574 C 8.415400505065918 2.390292167663574 8.204410552978516 2.413731575012207 8.072610855102539 2.63081169128418 L 2.238141059875488 12.24051189422607 C 2.101190567016602 12.46606254577637 2.186680793762207 12.66860198974609 2.229790687561035 12.74521255493164 C 2.272900581359863 12.82181167602539 2.401660919189453 13.00000190734863 2.66554069519043 13.00000190734863 L 14.3344612121582 13.00000190734863 C 14.59833145141602 13.00000190734863 14.72709083557129 12.82182216644287 14.77020072937012 12.74521255493164 C 14.81331062316895 12.66860198974609 14.89880084991455 12.46606254577637 14.76185131072998 12.24051189422607 L 8.927391052246094 2.630802154541016 C 8.795591354370117 2.413731575012207 8.584601402282715 2.390292167663574 8.500000953674316 2.390292167663574 M 8.500000953674316 1.390294075012207 C 8.995065689086914 1.390294075012207 9.490131378173828 1.630806922912598 9.782180786132812 2.111831665039062 L 15.6166410446167 11.72153186798096 C 16.22356033325195 12.72116184234619 15.50391101837158 14.00000190734863 14.3344612121582 14.00000190734863 L 2.66554069519043 14.00000190734863 C 1.496081352233887 14.00000190734863 0.7764301300048828 12.72116184234619 1.38335132598877 11.72153186798096 L 7.21782112121582 2.111831665039062 C 7.509870529174805 1.630806922912598 8.004936218261719 1.390294075012207 8.500000953674316 1.390294075012207 Z" stroke="none" fill="#3d485b"/>
  </g>
</svg>
