<svg xmlns="http://www.w3.org/2000/svg" width="14" height="17"><g id="Polygon_31" data-name="Polygon 31" fill="#3d485b"><path d="M14.334 13.5H2.666a.988.988 0 01-.872-.51.988.988 0 01.017-1.009l5.834-9.61a.993.993 0 01.855-.48c.352 0 .672.18.855.48l5.834 9.61c.19.313.197.69.017 1.01a.988.988 0 01-.872.509z" transform="rotate(90 7 7)"/><path d="M8.5 2.39a.493.493 0 00-.427.24l-5.835 9.61a.49.49 0 00-.008.505.49.49 0 00.436.255h11.668a.49.49 0 00.436-.255.49.49 0 00-.008-.504L8.927 2.63a.493.493 0 00-.427-.24m0-1c.495 0 .99.24 1.282.72l5.835 9.61A1.5 1.5 0 0114.334 14H2.666a1.5 1.5 0 01-1.283-2.278l5.835-9.61A1.487 1.487 0 018.5 1.39z" transform="rotate(90 7 7)"/></g></svg>