<svg aria-hidden="true" style="position: absolute; width: 0; height: 0; overflow: hidden;" version="1.1" xmlns="http://www.w3.org/2000/svg" xmlns:xlink="http://www.w3.org/1999/xlink">
<defs>
<symbol id="icon-equalizer" viewBox="0 0 32 32">
<path fill="#186dbe" style="fill: var(--color1, #186dbe)" d="M29 0.5h-26c-1.381 0-2.5 1.119-2.5 2.5v20c0 1.381 1.119 2.5 2.5 2.5h15.5v0.5c0 1.469 0.575 2.85 1.613 3.887s2.419 1.613 3.887 1.613c3.031 0 5.5-2.469 5.5-5.5v-0.55c1.137-0.231 2-1.244 2-2.45v-20c0-1.381-1.119-2.5-2.5-2.5zM28.5 26c0 2.481-2.019 4.5-4.5 4.5-1.2 0-2.331-0.469-3.181-1.319s-1.319-1.981-1.319-3.181v-1.294c0-0.538-0.125-1.081-0.369-1.563l-0.6-1.194c-0.019-0.044-0.031-0.094-0.031-0.137 0-0.169 0.137-0.313 0.306-0.313 0.931 0 1.694 0.756 1.694 1.694v1.306h1v-8.5c0-0.275 0.225-0.5 0.5-0.5s0.5 0.225 0.5 0.5v8.5h1v-4c0-0.275 0.225-0.5 0.5-0.5s0.5 0.225 0.5 0.5v4h1v-3.5c0-0.275 0.225-0.5 0.5-0.5s0.5 0.225 0.5 0.5v3.5h1v-3c0-0.275 0.225-0.5 0.5-0.5s0.5 0.225 0.5 0.5v4.5zM30.5 23c0 0.65-0.419 1.2-1 1.406v-2.906c0-0.825-0.675-1.5-1.5-1.5-0.269 0-0.519 0.075-0.738 0.2-0.262-0.419-0.731-0.7-1.262-0.7-0.269 0-0.519 0.075-0.738 0.2-0.262-0.419-0.731-0.7-1.262-0.7-0.175 0-0.344 0.038-0.5 0.094v-3.094c0-0.825-0.675-1.5-1.5-1.5s-1.5 0.675-1.5 1.5v5.113c-0.462-0.375-1.050-0.613-1.694-0.613-0.725 0-1.306 0.587-1.306 1.313 0 0.2 0.050 0.406 0.137 0.587l0.6 1.194c0.144 0.281 0.225 0.594 0.25 0.913h-15.488c-0.825 0-1.5-0.675-1.5-1.5v-20.006c0-0.825 0.675-1.5 1.5-1.5h26c0.825 0 1.5 0.675 1.5 1.5v20z"></path>
<path fill="#186dbe" style="fill: var(--color1, #186dbe)" d="M18.5 2.5h-15c-0.55 0-1 0.45-1 1v10c0 0.55 0.45 1 1 1h15c0.55 0 1-0.45 1-1v-10c0-0.55-0.45-1-1-1zM18.5 3.5v7h-0.5c-0.275 0-0.5-0.225-0.5-0.5v-4c0-0.825-0.675-1.5-1.5-1.5s-1.5 0.675-1.5 1.5v4c0 0.275-0.225 0.5-0.5 0.5s-0.5-0.225-0.5-0.5v-2.5c0-0.825-0.675-1.5-1.5-1.5s-1.5 0.675-1.5 1.5v1.5c0 0.275-0.225 0.5-0.5 0.5s-0.5-0.225-0.5-0.5v-3c0-0.825-0.675-1.5-1.5-1.5s-1.5 0.675-1.5 1.5v5c0 0.275-0.225 0.5-0.5 0.5s-0.5-0.225-0.5-0.5v-0.5c0-0.825-0.675-1.5-1.5-1.5h-0.5v-5.5h15zM3.5 13.5v-3.5h0.5c0.275 0 0.5 0.225 0.5 0.5v0.5c0 0.825 0.675 1.5 1.5 1.5s1.5-0.675 1.5-1.5v-5c0-0.275 0.225-0.5 0.5-0.5s0.5 0.225 0.5 0.5v3c0 0.825 0.675 1.5 1.5 1.5s1.5-0.675 1.5-1.5v-1.5c0-0.275 0.225-0.5 0.5-0.5s0.5 0.225 0.5 0.5v2.5c0 0.825 0.675 1.5 1.5 1.5s1.5-0.675 1.5-1.5v-4c0-0.275 0.225-0.5 0.5-0.5s0.5 0.225 0.5 0.5v4c0 0.825 0.675 1.5 1.5 1.5h0.5v2h-15z"></path>
<path fill="#186dbe" style="fill: var(--color1, #186dbe)" d="M4.5 19.5c-1.1 0-2 0.9-2 2s0.9 2 2 2 2-0.9 2-2-0.9-2-2-2zM4.5 22.5c-0.55 0-1-0.45-1-1s0.45-1 1-1 1 0.45 1 1-0.45 1-1 1z"></path>
<path fill="#186dbe" style="fill: var(--color1, #186dbe)" d="M9.5 19.5c-1.1 0-2 0.9-2 2s0.9 2 2 2 2-0.9 2-2-0.9-2-2-2zM9.5 22.5c-0.55 0-1-0.45-1-1s0.45-1 1-1 1 0.45 1 1-0.45 1-1 1z"></path>
<path fill="#186dbe" style="fill: var(--color1, #186dbe)" d="M14.5 19.5c-1.1 0-2 0.9-2 2s0.9 2 2 2 2-0.9 2-2-0.9-2-2-2zM14.5 22.5c-0.55 0-1-0.45-1-1s0.45-1 1-1 1 0.45 1 1-0.45 1-1 1z"></path>
<path fill="#186dbe" style="fill: var(--color1, #186dbe)" d="M5.5 17c0-0.825-0.675-1.5-1.5-1.5s-1.5 0.675-1.5 1.5 0.675 1.5 1.5 1.5 1.5-0.675 1.5-1.5zM3.5 17c0-0.275 0.225-0.5 0.5-0.5s0.5 0.225 0.5 0.5-0.225 0.5-0.5 0.5-0.5-0.225-0.5-0.5z"></path>
<path fill="#186dbe" style="fill: var(--color1, #186dbe)" d="M9.5 17c0-0.825-0.675-1.5-1.5-1.5s-1.5 0.675-1.5 1.5 0.675 1.5 1.5 1.5 1.5-0.675 1.5-1.5zM7.5 17c0-0.275 0.225-0.5 0.5-0.5s0.5 0.225 0.5 0.5-0.225 0.5-0.5 0.5-0.5-0.225-0.5-0.5z"></path>
<path fill="#186dbe" style="fill: var(--color1, #186dbe)" d="M13.5 17c0-0.825-0.675-1.5-1.5-1.5s-1.5 0.675-1.5 1.5 0.675 1.5 1.5 1.5 1.5-0.675 1.5-1.5zM12 17.5c-0.275 0-0.5-0.225-0.5-0.5s0.225-0.5 0.5-0.5 0.5 0.225 0.5 0.5-0.225 0.5-0.5 0.5z"></path>
<path fill="#186dbe" style="fill: var(--color1, #186dbe)" d="M16 15.5c-0.825 0-1.5 0.675-1.5 1.5s0.675 1.5 1.5 1.5 1.5-0.675 1.5-1.5-0.675-1.5-1.5-1.5zM16 17.5c-0.275 0-0.5-0.225-0.5-0.5s0.225-0.5 0.5-0.5c0.275 0 0.5 0.225 0.5 0.5s-0.225 0.5-0.5 0.5z"></path>
<path fill="#186dbe" style="fill: var(--color1, #186dbe)" d="M22.5 9.594v-7.094h-1v7.094c-0.581 0.206-1 0.756-1 1.406s0.419 1.2 1 1.406v1.094h1v-1.094c0.581-0.206 1-0.756 1-1.406s-0.419-1.2-1-1.406zM22 11.5c-0.275 0-0.5-0.225-0.5-0.5s0.225-0.5 0.5-0.5 0.5 0.225 0.5 0.5-0.225 0.5-0.5 0.5z"></path>
<path fill="#186dbe" style="fill: var(--color1, #186dbe)" d="M25.5 4.594v-2.094h-1v2.094c-0.581 0.206-1 0.756-1 1.406s0.419 1.2 1 1.406v6.094h1v-6.094c0.581-0.206 1-0.756 1-1.406s-0.419-1.2-1-1.406zM25 6.5c-0.275 0-0.5-0.225-0.5-0.5s0.225-0.5 0.5-0.5 0.5 0.225 0.5 0.5-0.225 0.5-0.5 0.5z"></path>
<path fill="#186dbe" style="fill: var(--color1, #186dbe)" d="M28.5 8.594v-6.094h-1v6.094c-0.581 0.206-1 0.756-1 1.406s0.419 1.2 1 1.406v2.094h1v-2.094c0.581-0.206 1-0.756 1-1.406s-0.419-1.2-1-1.406zM28 10.5c-0.275 0-0.5-0.225-0.5-0.5s0.225-0.5 0.5-0.5 0.5 0.225 0.5 0.5-0.225 0.5-0.5 0.5z"></path>
</symbol>
<symbol id="icon-site" viewBox="0 0 32 32">
<path fill="#186dbe" style="fill: var(--color1, #186dbe)" d="M28.367 30.091h-24.734c-2.002 0-3.633-1.631-3.633-3.633v-20.97c0-2.002 1.631-3.633 3.633-3.633h24.734c2.002 0 3.633 1.631 3.633 3.633v20.97c0 2.002-1.631 3.633-3.633 3.633zM3.633 2.937c-1.407 0-2.551 1.144-2.551 2.551v20.97c0 1.407 1.144 2.551 2.551 2.551h24.734c1.407 0 2.551-1.144 2.551-2.551v-20.97c0-1.407-1.144-2.551-2.551-2.551h-24.734z"></path>
<path fill="#186dbe" style="fill: var(--color1, #186dbe)" d="M27.115 21.828h-8.502c-0.301 0-0.541-0.24-0.541-0.541s0.24-0.541 0.541-0.541h8.502c0.301 0 0.541 0.24 0.541 0.541s-0.24 0.541-0.541 0.541z"></path>
<path fill="#186dbe" style="fill: var(--color1, #186dbe)" d="M27.115 25.739h-8.502c-0.301 0-0.541-0.24-0.541-0.541s0.24-0.541 0.541-0.541h8.502c0.301 0 0.541 0.24 0.541 0.541s-0.24 0.541-0.541 0.541z"></path>
<path fill="#186dbe" style="fill: var(--color1, #186dbe)" d="M27.115 14.006h-8.502c-0.301 0-0.541-0.24-0.541-0.541s0.24-0.541 0.541-0.541h8.502c0.301 0 0.541 0.24 0.541 0.541s-0.24 0.541-0.541 0.541z"></path>
<path fill="#186dbe" style="fill: var(--color1, #186dbe)" d="M27.115 17.917h-8.502c-0.301 0-0.541-0.24-0.541-0.541s0.24-0.541 0.541-0.541h8.502c0.301 0 0.541 0.24 0.541 0.541s-0.24 0.541-0.541 0.541z"></path>
<path fill="#186dbe" style="fill: var(--color1, #186dbe)" d="M31.459 9.098h-30.918c-0.301 0-0.541-0.24-0.541-0.541s0.24-0.541 0.541-0.541h30.918c0.301 0 0.541 0.24 0.541 0.541s-0.24 0.541-0.541 0.541z"></path>
<path fill="#186dbe" style="fill: var(--color1, #186dbe)" d="M7.799 7.173c-0.928 0-1.685-0.758-1.685-1.685s0.758-1.685 1.685-1.685 1.685 0.758 1.685 1.685-0.758 1.685-1.685 1.685zM7.799 4.885c-0.332 0-0.603 0.271-0.603 0.603s0.271 0.603 0.603 0.603c0.332 0 0.603-0.271 0.603-0.603s-0.271-0.603-0.603-0.603z"></path>
<path fill="#186dbe" style="fill: var(--color1, #186dbe)" d="M3.903 7.173c-0.928 0-1.685-0.758-1.685-1.685s0.757-1.685 1.685-1.685c0.928 0 1.685 0.758 1.685 1.685s-0.758 1.685-1.685 1.685zM3.903 4.885c-0.332 0-0.603 0.271-0.603 0.603s0.271 0.603 0.603 0.603c0.332 0 0.603-0.271 0.603-0.603s-0.271-0.603-0.603-0.603z"></path>
<path fill="#186dbe" style="fill: var(--color1, #186dbe)" d="M11.695 7.173c-0.928 0-1.685-0.758-1.685-1.685s0.758-1.685 1.685-1.685 1.685 0.758 1.685 1.685-0.75 1.685-1.685 1.685zM11.695 4.885c-0.332 0-0.603 0.271-0.603 0.603s0.271 0.603 0.603 0.603c0.332 0 0.603-0.271 0.603-0.603s-0.271-0.603-0.603-0.603z"></path>
<path fill="#186dbe" style="fill: var(--color1, #186dbe)" d="M14.531 25.739h-9.816c-0.301 0-0.541-0.24-0.541-0.541v-11.733c0-0.301 0.24-0.541 0.541-0.541h9.816c0.301 0 0.541 0.24 0.541 0.541v11.733c0 0.301-0.24 0.541-0.541 0.541zM5.256 24.657h8.734v-10.651h-8.734v10.651z"></path>
</symbol>
<symbol id="icon-analytics" viewBox="0 0 32 32">
<path fill="#186dbe" style="fill: var(--color1, #186dbe)" d="M13 25.5h1.5v1h-1.5v-1z"></path>
<path fill="#186dbe" style="fill: var(--color1, #186dbe)" d="M29.5 0h-27c-1.381 0-2.5 1.119-2.5 2.5v21.5c0 1.381 1.119 2.5 2.5 2.5h2.5v-1h-2.5c-0.825 0-1.5-0.675-1.5-1.5v-19h30v19c0 0.825-0.675 1.5-1.5 1.5v1c1.381 0 2.5-1.119 2.5-2.5v-21.5c0-1.381-1.119-2.5-2.5-2.5zM31 4h-30v-1.5c0-0.825 0.675-1.5 1.5-1.5h27c0.825 0 1.5 0.675 1.5 1.5v1.5z"></path>
<path fill="#186dbe" style="fill: var(--color1, #186dbe)" d="M3 2.5c0 0.276-0.224 0.5-0.5 0.5s-0.5-0.224-0.5-0.5c0-0.276 0.224-0.5 0.5-0.5s0.5 0.224 0.5 0.5z"></path>
<path fill="#186dbe" style="fill: var(--color1, #186dbe)" d="M5 2.5c0 0.276-0.224 0.5-0.5 0.5s-0.5-0.224-0.5-0.5c0-0.276 0.224-0.5 0.5-0.5s0.5 0.224 0.5 0.5z"></path>
<path fill="#186dbe" style="fill: var(--color1, #186dbe)" d="M7 2.5c0 0.276-0.224 0.5-0.5 0.5s-0.5-0.224-0.5-0.5c0-0.276 0.224-0.5 0.5-0.5s0.5 0.224 0.5 0.5z"></path>
<path fill="#186dbe" style="fill: var(--color1, #186dbe)" d="M26 20h-3v-2c0-0.275-0.225-0.5-0.5-0.5h-6.469c0.3-0.775 0.469-1.619 0.469-2.5 0-0.275-0.225-0.5-0.5-0.5h-6v-6c0-0.275-0.225-0.5-0.5-0.5-3.862 0-7 3.137-7 7s3.138 7 7 7c2.581 0 4.838-1.413 6.050-3.5h6.45v1.5h-4c-1.381 0-2.5 1.119-2.5 2.5v5c0 1.381 1.119 2.5 2.5 2.5h8c1.381 0 2.5-1.119 2.5-2.5v-5c0-1.381-1.119-2.5-2.5-2.5zM3.5 15c0-3.137 2.425-5.725 5.5-5.981v5.881l-2.256 5.425c-1.925-1.006-3.244-3.012-3.244-5.325zM14.95 17.5h-2.037c-0.206-0.581-0.756-1-1.406-1-0.825 0-1.5 0.675-1.5 1.5s0.675 1.5 1.5 1.5c0.65 0 1.2-0.419 1.406-1h1.456c-1.088 1.512-2.862 2.5-4.862 2.5-0.644 0-1.256-0.106-1.838-0.288l2.169-5.213h5.644c-0.063 0.713-0.25 1.381-0.531 2zM12 18c0 0.275-0.225 0.5-0.5 0.5s-0.5-0.225-0.5-0.5 0.225-0.5 0.5-0.5 0.5 0.225 0.5 0.5zM27.5 27.5c0 0.825-0.675 1.5-1.5 1.5h-8c-0.825 0-1.5-0.675-1.5-1.5v-5c0-0.825 0.675-1.5 1.5-1.5h8c0.825 0 1.5 0.675 1.5 1.5v5z"></path>
<path fill="#186dbe" style="fill: var(--color1, #186dbe)" d="M18.5 6c-0.131 0-0.262 0.050-0.356 0.144l-1.806 1.806c-1.256-1.2-2.963-1.95-4.838-1.95-0.275 0-0.5 0.225-0.5 0.5v6.5c0 0.275 0.225 0.5 0.5 0.5h6.5c0.275 0 0.5-0.225 0.5-0.5 0-1.625-0.563-3.113-1.488-4.3l1.7-1.7h2.288v-1h-2.5zM17.481 12.5h-5.481v-5.481c1.406 0.119 2.669 0.719 3.631 1.638l-0.988 0.988 0.706 0.706 0.944-0.944c0.663 0.881 1.087 1.938 1.188 3.094z"></path>
<path fill="#186dbe" style="fill: var(--color1, #186dbe)" d="M22 6h8v1h-8v-1z"></path>
<path fill="#186dbe" style="fill: var(--color1, #186dbe)" d="M22 8h8v1h-8v-1z"></path>
<path fill="#186dbe" style="fill: var(--color1, #186dbe)" d="M22 10h8v1h-8v-1z"></path>
<path fill="#186dbe" style="fill: var(--color1, #186dbe)" d="M12 31v-5c0-0.275-0.225-0.5-0.5-0.5h-2v-1.5c0-0.275-0.225-0.5-0.5-0.5h-2.5c-0.275 0-0.5 0.225-0.5 0.5v4h-2c-0.275 0-0.5 0.225-0.5 0.5v2.5h-2.5v1h13v-1h-2zM6 31h-1.5v-2h1.5v2zM8.5 26v5h-1.5v-6.5h1.5v1.5zM11 31h-1.5v-4.5h1.5v4.5z"></path>
<path fill="#186dbe" style="fill: var(--color1, #186dbe)" d="M25.525 22.844l-1.156 3.469-2.438-4.069c-0.094-0.163-0.269-0.256-0.462-0.244-0.188 0.012-0.35 0.131-0.425 0.3l-1.212 2.825-0.975-0.975c-0.119-0.119-0.288-0.169-0.456-0.137-0.163 0.031-0.3 0.15-0.363 0.306l-1 2.5 0.925 0.369 0.719-1.794 0.962 0.962c0.119 0.119 0.288 0.169 0.45 0.137s0.3-0.144 0.363-0.294l1.113-2.6 2.5 4.163c0.087 0.15 0.256 0.244 0.425 0.244 0.019 0 0.038 0 0.056 0 0.194-0.019 0.356-0.156 0.419-0.337l1.5-4.5-0.944-0.325z"></path>
<path fill="#186dbe" style="fill: var(--color1, #186dbe)" d="M29.5 13h-5c-0.275 0-0.5 0.225-0.5 0.5v4c0 0.275 0.225 0.5 0.5 0.5h5c0.275 0 0.5-0.225 0.5-0.5v-4c0-0.275-0.225-0.5-0.5-0.5zM28.075 14l-1.075 0.863-1.075-0.863h2.15zM25 14.537l1.2 0.963-1.2 0.962v-1.925zM25.925 17l1.075-0.863 1.075 0.863h-2.15zM29 16.462l-1.2-0.963 1.2-0.963v1.925z"></path>
</symbol>
<symbol id="icon-crm" viewBox="0 0 32 32">
<path fill="#186dbe" style="fill: var(--color1, #186dbe)" d="M28.813 25.387c0.719-0.55 1.188-1.413 1.188-2.387 0-1.481-1.081-2.712-2.5-2.956v-0.544c0-1.381-1.119-2.5-2.5-2.5h-8.5v-1.825c0.269 0.206 0.594 0.325 0.938 0.325 0.844 0 1.525-0.669 1.556-1.506 0.819-0.031 1.469-0.681 1.5-1.5 0.819-0.031 1.469-0.681 1.5-1.5 0.837-0.031 1.506-0.713 1.506-1.556 0-0.419-0.163-0.806-0.456-1.106l-0.106-0.106c0.688-0.844 1.063-1.888 1.063-2.987 0-2.612-2.125-4.737-4.744-4.737-1.225 0-2.375 0.463-3.256 1.3-0.887-0.838-2.031-1.3-3.256-1.3-2.619 0-4.744 2.125-4.744 4.744 0 1.231 0.469 2.381 1.313 3.269-0.2 0.269-0.313 0.588-0.313 0.925 0 0.844 0.669 1.525 1.506 1.556 0.031 0.819 0.681 1.469 1.5 1.5 0.031 0.819 0.681 1.469 1.5 1.5 0.031 0.838 0.713 1.506 1.556 1.506 0.15 0 0.3-0.031 0.438-0.069v1.569h-8.5c-1.381 0-2.5 1.119-2.5 2.5v0.544c-1.419 0.238-2.5 1.469-2.5 2.956 0 0.975 0.469 1.837 1.188 2.387-1.581 0.694-2.688 2.275-2.688 4.113v2h9v-2c0-1.837-1.106-3.419-2.688-4.113 0.719-0.55 1.188-1.413 1.188-2.387 0-1.481-1.081-2.712-2.5-2.956v-0.544c0-0.825 0.675-1.5 1.5-1.5h8.5v2.044c-1.419 0.238-2.5 1.469-2.5 2.956 0 0.975 0.469 1.837 1.188 2.387-1.581 0.7-2.688 2.281-2.688 4.113v2h9v-2c0-1.837-1.106-3.419-2.688-4.113 0.719-0.55 1.188-1.413 1.188-2.387 0-1.481-1.081-2.712-2.5-2.956v-2.044h8.5c0.825 0 1.5 0.675 1.5 1.5v0.544c-1.419 0.238-2.5 1.469-2.5 2.956 0 0.975 0.469 1.837 1.188 2.387-1.581 0.7-2.688 2.281-2.688 4.113v2h9v-2c0-1.837-1.106-3.419-2.688-4.113v0zM19.256 1.5c2.063 0 3.744 1.681 3.744 3.744 0 0.838-0.275 1.625-0.775 2.275l-2.3-2.3c0.15-0.112 0.294-0.231 0.425-0.362l-0.706-0.706c-0.55 0.55-1.281 0.856-2.063 0.856h-0.794l-0.85 0.85c-0.094 0.094-0.219 0.144-0.356 0.144h-1.881c-0.113 0-0.206-0.094-0.206-0.206 0-0.056 0.025-0.106 0.063-0.144l3.050-3.050c0.712-0.712 1.65-1.1 2.65-1.1v0zM12.744 1.5c0.956 0 1.85 0.356 2.544 1.006l-2.438 2.437c-0.225 0.225-0.35 0.531-0.35 0.856 0 0.662 0.544 1.206 1.206 1.206h1.881c0.4 0 0.775-0.156 1.063-0.438l0.563-0.563h0.381c0.5 0 0.981-0.094 1.438-0.275l3.319 3.319c0.106 0.106 0.163 0.244 0.163 0.394 0 0.306-0.25 0.563-0.563 0.563-0.15 0-0.288-0.056-0.394-0.162l-1.188-1.188-0.706 0.706 1.188 1.188c0.106 0.106 0.163 0.244 0.163 0.394 0 0.306-0.25 0.563-0.563 0.563-0.15 0-0.288-0.056-0.394-0.162l-1.188-1.188-0.706 0.706 1.188 1.188c0.106 0.106 0.163 0.244 0.163 0.394 0 0.306-0.25 0.563-0.563 0.563-0.15 0-0.288-0.056-0.394-0.162l-1.188-1.188-0.706 0.706 1.188 1.188c0.106 0.106 0.163 0.244 0.163 0.394 0 0.306-0.25 0.563-0.563 0.563-0.15 0-0.288-0.056-0.394-0.162l-0.169-0.169c0.081-0.188 0.125-0.394 0.125-0.606 0-0.844-0.669-1.525-1.506-1.556-0.031-0.819-0.681-1.469-1.5-1.5-0.031-0.819-0.681-1.469-1.5-1.5-0.031-0.838-0.713-1.506-1.556-1.506-0.338 0-0.656 0.112-0.919 0.306-0.656-0.7-1.019-1.6-1.019-2.563-0.012-2.069 1.669-3.75 3.731-3.75v0zM10 9.438c0-0.15 0.056-0.287 0.162-0.394l0.381-0.381c0.106-0.106 0.244-0.162 0.394-0.162 0.306 0 0.563 0.25 0.563 0.563 0 0.15-0.056 0.287-0.162 0.394l-0.381 0.381c-0.106 0.106-0.244 0.162-0.394 0.162-0.313 0-0.563-0.25-0.563-0.563zM11.5 10.938c0-0.15 0.056-0.287 0.162-0.394l0.381-0.381c0.106-0.106 0.244-0.162 0.394-0.162 0.306 0 0.563 0.25 0.563 0.563 0 0.15-0.056 0.287-0.162 0.394l-0.381 0.381c-0.106 0.106-0.244 0.162-0.394 0.162-0.313 0-0.563-0.25-0.563-0.563zM13 12.438c0-0.15 0.056-0.287 0.162-0.394l0.381-0.381c0.106-0.106 0.244-0.162 0.394-0.162 0.306 0 0.563 0.25 0.563 0.563 0 0.15-0.056 0.287-0.162 0.394l-0.381 0.381c-0.106 0.106-0.244 0.162-0.394 0.162-0.313 0-0.563-0.25-0.563-0.563zM15.063 14.5c-0.306 0-0.563-0.25-0.563-0.563 0-0.15 0.056-0.287 0.162-0.394l0.381-0.381c0.106-0.106 0.244-0.162 0.394-0.162 0.306 0 0.563 0.25 0.563 0.563 0 0.15-0.056 0.287-0.162 0.394l-0.381 0.381c-0.106 0.106-0.244 0.162-0.394 0.162zM8.5 29.5v1h-1v-2h-1v2h-3v-2h-1v2h-1v-1c0-1.931 1.569-3.5 3.5-3.5s3.5 1.569 3.5 3.5zM7 23c0 1.1-0.9 2-2 2s-2-0.9-2-2 0.9-2 2-2 2 0.9 2 2zM19.5 29.5v1h-1v-2h-1v2h-3v-2h-1v2h-1v-1c0-1.931 1.569-3.5 3.5-3.5s3.5 1.569 3.5 3.5zM18 23c0 1.1-0.9 2-2 2s-2-0.9-2-2 0.9-2 2-2 2 0.9 2 2zM25 23c0-1.1 0.9-2 2-2s2 0.9 2 2-0.9 2-2 2-2-0.9-2-2zM30.5 30.5h-1v-2h-1v2h-3v-2h-1v2h-1v-1c0-1.931 1.569-3.5 3.5-3.5s3.5 1.569 3.5 3.5v1z"></path>
<path fill="#186dbe" style="fill: var(--color1, #186dbe)" d="M19 19h1v1h-1v-1z"></path>
<path fill="#186dbe" style="fill: var(--color1, #186dbe)" d="M21 19h1v1h-1v-1z"></path>
<path fill="#186dbe" style="fill: var(--color1, #186dbe)" d="M23 19h1v1h-1v-1z"></path>
<path fill="#186dbe" style="fill: var(--color1, #186dbe)" d="M8 19h1v1h-1v-1z"></path>
<path fill="#186dbe" style="fill: var(--color1, #186dbe)" d="M10 19h1v1h-1v-1z"></path>
<path fill="#186dbe" style="fill: var(--color1, #186dbe)" d="M12 19h1v1h-1v-1z"></path>
</symbol>
<symbol id="icon-messangers" viewBox="0 0 32 32">
<path fill="#186dbe" style="fill: var(--color1, #186dbe)" d="M30.594 0h-29.188c-0.775 0-1.406 0.631-1.406 1.406v29.181c0 0.781 0.631 1.413 1.406 1.413h29.181c0.775 0 1.406-0.631 1.406-1.406v-17.844c0-0.256-0.212-0.469-0.469-0.469s-0.469 0.213-0.469 0.469v17.844c0 0.256-0.212 0.469-0.469 0.469h-29.181c-0.256 0-0.469-0.212-0.469-0.469v-24.212h30.125v4.238c0 0.256 0.212 0.469 0.469 0.469s0.469-0.213 0.469-0.469v-9.213c0-0.775-0.631-1.406-1.406-1.406v0zM31.063 5.438h-30.125v-4.031c0-0.256 0.212-0.469 0.469-0.469h29.181c0.256 0 0.469 0.212 0.469 0.469l0.006 4.031z"></path>
<path fill="#186dbe" style="fill: var(--color1, #186dbe)" d="M4.169 1.769c-0.825 0-1.5 0.675-1.5 1.5s0.675 1.5 1.5 1.5 1.5-0.675 1.5-1.5-0.669-1.5-1.5-1.5zM4.169 3.831c-0.306 0-0.563-0.25-0.563-0.563s0.25-0.563 0.563-0.563c0.306 0 0.563 0.25 0.563 0.563s-0.25 0.563-0.563 0.563z"></path>
<path fill="#186dbe" style="fill: var(--color1, #186dbe)" d="M8.144 1.769c-0.825 0-1.5 0.675-1.5 1.5s0.675 1.5 1.5 1.5 1.5-0.675 1.5-1.5-0.675-1.5-1.5-1.5zM8.144 3.831c-0.306 0-0.563-0.25-0.563-0.563s0.25-0.563 0.563-0.563c0.306 0 0.563 0.25 0.563 0.563s-0.25 0.563-0.563 0.563z"></path>
<path fill="#186dbe" style="fill: var(--color1, #186dbe)" d="M12.119 1.769c-0.825 0-1.5 0.675-1.5 1.5s0.675 1.5 1.5 1.5 1.5-0.675 1.5-1.5-0.675-1.5-1.5-1.5zM12.119 3.831c-0.306 0-0.563-0.25-0.563-0.563s0.25-0.563 0.563-0.563c0.306 0 0.563 0.25 0.563 0.563s-0.256 0.563-0.563 0.563z"></path>
<path fill="#186dbe" style="fill: var(--color1, #186dbe)" d="M2.737 28.881c0 0.431 0.35 0.781 0.781 0.781h19.363c0.431 0 0.781-0.35 0.781-0.781v-5.137c0-0.431-0.35-0.781-0.781-0.781h-19.363c-0.431 0-0.781 0.35-0.781 0.781v5.137zM3.675 23.9h19.050v4.825h-19.050v-4.825z"></path>
<path fill="#186dbe" style="fill: var(--color1, #186dbe)" d="M5.094 25.794h1.537c0.256 0 0.469-0.212 0.469-0.469s-0.213-0.469-0.469-0.469h-1.537c-0.256 0-0.469 0.212-0.469 0.469 0 0.262 0.213 0.469 0.469 0.469z"></path>
<path fill="#186dbe" style="fill: var(--color1, #186dbe)" d="M17.725 24.856h-9.375c-0.256 0-0.469 0.212-0.469 0.469s0.213 0.469 0.469 0.469h9.375c0.256 0 0.469-0.212 0.469-0.469s-0.212-0.469-0.469-0.469z"></path>
<path fill="#186dbe" style="fill: var(--color1, #186dbe)" d="M16.3 26.825h-3.425c-0.256 0-0.469 0.212-0.469 0.469s0.213 0.469 0.469 0.469h3.425c0.256 0 0.469-0.212 0.469-0.469s-0.206-0.469-0.469-0.469z"></path>
<path fill="#186dbe" style="fill: var(--color1, #186dbe)" d="M11.081 26.825h-1.069c-0.256 0-0.469 0.212-0.469 0.469s0.213 0.469 0.469 0.469h1.069c0.256 0 0.469-0.212 0.469-0.469s-0.213-0.469-0.469-0.469z"></path>
<path fill="#186dbe" style="fill: var(--color1, #186dbe)" d="M8.294 26.825h-3.2c-0.256 0-0.469 0.212-0.469 0.469s0.213 0.469 0.469 0.469h3.2c0.256 0 0.469-0.212 0.469-0.469s-0.213-0.469-0.469-0.469z"></path>
<path fill="#186dbe" style="fill: var(--color1, #186dbe)" d="M29.875 9.363c0-1.019-0.831-1.844-1.844-1.844h-14.244c-1.019 0-1.844 0.831-1.844 1.844v1.938c0 1.019 0.831 1.844 1.844 1.844h11.5c0.031 0.65 0.356 1.506 1.406 2 0.1 0.044 0.2 0.069 0.306 0.069 0.169 0 0.337-0.056 0.469-0.175 0.219-0.188 0.3-0.469 0.225-0.744-0.081-0.287-0.181-0.775-0.012-1.15h0.356c1.019 0 1.844-0.831 1.844-1.844l-0.006-1.938zM28.938 11.3c0 0.5-0.406 0.906-0.906 0.906h-0.613c-0.144 0-0.275 0.063-0.363 0.175-0.344 0.425-0.475 0.988-0.381 1.65-0.575-0.5-0.45-1.156-0.425-1.238 0.038-0.137 0.006-0.287-0.087-0.4-0.087-0.113-0.225-0.181-0.369-0.181h-12.006c-0.5 0-0.906-0.406-0.906-0.906v-1.938c0-0.5 0.406-0.906 0.906-0.906h14.244c0.5 0 0.906 0.406 0.906 0.906v1.931z"></path>
<path fill="#186dbe" style="fill: var(--color1, #186dbe)" d="M18.825 19.131h-2.637c-0.256 0-0.469 0.212-0.469 0.469s0.213 0.469 0.469 0.469h2.637c1.019 0 1.844-0.831 1.844-1.844v-1.938c0-1.019-0.831-1.844-1.844-1.844h-14.244c-1.019 0-1.844 0.831-1.844 1.844v1.938c0 1.019 0.831 1.844 1.844 1.844h0.356c0.169 0.369 0.069 0.863-0.013 1.15-0.081 0.275 0.006 0.563 0.225 0.744 0.131 0.113 0.3 0.175 0.469 0.175 0.106 0 0.206-0.025 0.306-0.069 1.050-0.494 1.375-1.344 1.406-2h6.856c0.256 0 0.469-0.212 0.469-0.469s-0.213-0.469-0.469-0.469h-7.362c-0.144 0-0.281 0.063-0.369 0.181s-0.119 0.262-0.088 0.4c0.019 0.087 0.15 0.744-0.425 1.244 0.094-0.663-0.037-1.225-0.381-1.65-0.088-0.106-0.225-0.175-0.362-0.175h-0.612c-0.5 0-0.906-0.406-0.906-0.906v-1.938c0-0.5 0.406-0.906 0.906-0.906h14.244c0.5 0 0.906 0.406 0.906 0.906v1.938c0 0.494-0.413 0.906-0.913 0.906v0z"></path>
<path fill="#186dbe" style="fill: var(--color1, #186dbe)" d="M27.031 24.206l-1.538 1.981c-0.156 0.206-0.119 0.5 0.081 0.656 0.206 0.156 0.5 0.119 0.656-0.081l0.694-0.894v2.881c0 0.256 0.212 0.469 0.469 0.469s0.469-0.212 0.469-0.469v-2.837l0.625 0.837c0.094 0.125 0.231 0.188 0.375 0.188 0.1 0 0.194-0.031 0.281-0.094 0.206-0.156 0.25-0.45 0.1-0.656l-1.469-1.981c-0.012-0.012-0.15-0.206-0.394-0.194-0.212 0.019-0.337 0.175-0.35 0.194v0z"></path>
</symbol>
<symbol id="icon-voip" viewBox="0 0 32 32">
<path fill="#186dbe" style="fill: var(--color1, #186dbe)" d="M6.062 17.82h5.389v0.742h-5.389v-0.742z"></path>
<path fill="#186dbe" style="fill: var(--color1, #186dbe)" d="M25.197 5.132h-17.889l-2.838 11.491v4.46h22.952v-4.48l-2.225-11.471zM10.759 8.643c0.030-0.158 0.089-0.316 0.188-0.475 0.109-0.168 0.257-0.336 0.435-0.465l-0.010-0.010 0.524-0.326c0.386-0.237 0.999-0.247 1.365-0.020l1.859 1.147c0.366 0.227 0.356 0.603-0.030 0.841l-0.307 0.188-0.623 0.386c0.030 0.040 0.069 0.069 0.099 0.109 0.326 0.366 0.781 0.86 1.632 1.394 0.85 0.524 1.661 0.801 2.255 0.999 0.059 0.020 0.129 0.040 0.188 0.059l0.939-0.574c0.386-0.237 0.999-0.247 1.365-0.020l1.859 1.147c0.366 0.227 0.356 0.603-0.030 0.841l-0.534 0.316-0.010-0.010c-0.227 0.109-0.485 0.198-0.761 0.267-0.257 0.059-0.514 0.099-0.771 0.119-0.119 0.010-2.927 0.168-6.418-1.978-2.532-1.543-3.461-2.69-3.214-3.936zM26.848 20.509h-21.795v-3.55h21.785v3.55z"></path>
<path fill="#186dbe" style="fill: var(--color1, #186dbe)" d="M23.99 19.599c0.574 0 1.038-0.465 1.038-1.038s-0.465-1.038-1.038-1.038-1.038 0.465-1.038 1.038c0 0.574 0.465 1.038 1.038 1.038zM23.99 18.106c0.247 0 0.455 0.208 0.455 0.455s-0.208 0.455-0.455 0.455c-0.247 0-0.455-0.208-0.455-0.455s0.208-0.455 0.455-0.455z"></path>
<path fill="#186dbe" style="fill: var(--color1, #186dbe)" d="M14.022 18.868c0 0.268-0.217 0.485-0.485 0.485s-0.485-0.217-0.485-0.485c0-0.268 0.217-0.485 0.485-0.485s0.485 0.217 0.485 0.485z"></path>
<path fill="#186dbe" style="fill: var(--color1, #186dbe)" d="M15.001 19.352c0.267 0 0.485-0.218 0.485-0.485s-0.218-0.485-0.485-0.485c-0.267 0-0.267 0.969 0 0.969z"></path>
<path fill="#186dbe" style="fill: var(--color1, #186dbe)" d="M16.791 18.868c0 0.268-0.217 0.485-0.485 0.485s-0.485-0.217-0.485-0.485c0-0.268 0.217-0.485 0.485-0.485s0.485 0.217 0.485 0.485z"></path>
<path fill="#186dbe" style="fill: var(--color1, #186dbe)" d="M32 25.246h-13.726c-0.138-0.593-0.663-1.038-1.295-1.038h-0.732v-2.967h-0.583v2.967h-0.742c-0.633 0-1.167 0.445-1.295 1.038h-13.627v0.583h13.627c0.138 0.593 0.663 1.038 1.295 1.038h2.057c0.633 0 1.167-0.445 1.295-1.038h13.726v-0.583zM16.979 26.284h-2.057c-0.415 0-0.752-0.336-0.752-0.752s0.336-0.752 0.752-0.752h2.057c0.415 0 0.752 0.336 0.752 0.752s-0.336 0.752-0.752 0.752z"></path>
</symbol>
</defs>
</svg>
